<svg width="173" height="18" viewBox="0 0 173 18" fill="none" xmlns="http://www.w3.org/2000/svg">
<path d="M0.793944 17V15.988C1.29994 15.9727 1.66028 15.873 1.87494 15.689C2.10494 15.4897 2.25061 15.1983 2.31194 14.815C2.37328 14.4317 2.40394 13.9487 2.40394 13.366V3.982C2.40394 3.154 2.42694 2.51767 2.47294 2.073C2.21228 2.08833 1.92861 2.10367 1.62194 2.119C1.31528 2.13433 1.03928 2.14967 0.793944 2.165V0.899999C1.71394 0.884666 2.63394 0.876999 3.55394 0.876999C4.47394 0.861666 5.41694 0.853999 6.38294 0.853999C8.19228 0.853999 9.61061 1.18367 10.6379 1.843C11.6653 2.487 12.1559 3.499 12.1099 4.879C12.0946 5.59967 11.7879 6.29733 11.1899 6.972C10.5919 7.63133 9.68728 8.08367 8.47594 8.329V8.375C10.1166 8.45167 11.3433 8.881 12.1559 9.663C12.9686 10.4297 13.3749 11.365 13.3749 12.469C13.3749 13.435 13.1296 14.2553 12.6389 14.93C12.1636 15.6047 11.5119 16.1183 10.6839 16.471C9.87128 16.8237 8.93594 17 7.87794 17H0.793944ZM4.84194 8.122L6.35994 8.076C7.15728 8.06067 7.78594 7.892 8.24594 7.57C8.72128 7.248 9.05861 6.834 9.25794 6.328C9.45728 5.822 9.54928 5.293 9.53394 4.741C9.53394 3.97433 9.37294 3.39167 9.05094 2.993C8.72894 2.59433 8.33028 2.31833 7.85494 2.165C7.37961 2.01167 6.91194 1.935 6.45194 1.935C5.82328 1.95033 5.39394 2.096 5.16394 2.372C4.94928 2.648 4.84194 3.21533 4.84194 4.074V8.122ZM4.77294 15.85C5.14094 15.8653 5.57028 15.873 6.06094 15.873C6.56694 15.873 6.92728 15.873 7.14194 15.873C8.24594 15.8577 9.11228 15.5587 9.74094 14.976C10.3696 14.3933 10.6839 13.5807 10.6839 12.538C10.6839 11.6793 10.5076 11.0123 10.1549 10.537C9.81761 10.0463 9.37294 9.70133 8.82094 9.502C8.26894 9.30267 7.67861 9.203 7.04994 9.203C6.22194 9.203 5.48594 9.21833 4.84194 9.249V13.964C4.84194 14.378 4.83428 14.746 4.81894 15.068C4.81894 15.39 4.80361 15.6507 4.77294 15.85ZM27.0113 17.368C25.5547 17.368 24.305 17.1227 23.2623 16.632C22.235 16.1413 21.3993 15.4897 20.7553 14.677C20.1113 13.849 19.636 12.9367 19.3293 11.94C19.0227 10.9433 18.8693 9.94667 18.8693 8.95C18.8693 7.984 19.0303 7.01033 19.3523 6.029C19.6897 5.03233 20.188 4.12 20.8473 3.292C21.5067 2.464 22.3423 1.797 23.3543 1.291C24.3663 0.784999 25.547 0.532 26.8963 0.532C28.307 0.532 29.5183 0.784999 30.5303 1.291C31.5577 1.797 32.401 2.47167 33.0603 3.315C33.735 4.143 34.2333 5.04767 34.5553 6.029C34.8773 7.01033 35.0383 7.984 35.0383 8.95C35.0383 9.90067 34.8697 10.8743 34.5323 11.871C34.2103 12.8523 33.7197 13.757 33.0603 14.585C32.401 15.413 31.5653 16.0877 30.5533 16.609C29.5413 17.115 28.3607 17.368 27.0113 17.368ZM27.1263 16.172C28.0157 16.172 28.7823 15.9727 29.4263 15.574C30.0857 15.1753 30.6223 14.6463 31.0363 13.987C31.4657 13.3123 31.78 12.5763 31.9793 11.779C32.1787 10.9663 32.2783 10.1613 32.2783 9.364C32.2783 8.38267 32.1557 7.43967 31.9103 6.535C31.6803 5.615 31.3353 4.79467 30.8753 4.074C30.4153 3.338 29.8403 2.763 29.1503 2.349C28.4603 1.91967 27.663 1.705 26.7583 1.705C25.869 1.705 25.0947 1.912 24.4353 2.326C23.7913 2.74 23.2547 3.28433 22.8253 3.959C22.4113 4.61833 22.097 5.35433 21.8823 6.167C21.683 6.97967 21.5833 7.78467 21.5833 8.582C21.5833 9.39467 21.6907 10.2457 21.9053 11.135C22.12 12.009 22.4497 12.8293 22.8943 13.596C23.339 14.3627 23.9063 14.9837 24.5963 15.459C25.3017 15.9343 26.145 16.172 27.1263 16.172ZM52.7585 5.868C52.7432 4.54933 52.5208 3.568 52.0915 2.924C51.6622 2.28 50.9032 1.958 49.8145 1.958H48.1585L48.1355 13.918C48.1355 14.332 48.1278 14.7077 48.1125 15.045C48.0972 15.367 48.0818 15.6277 48.0665 15.827C48.3578 15.8117 48.6722 15.7963 49.0095 15.781C49.3622 15.7503 49.6765 15.735 49.9525 15.735V17H44.1105V15.988C44.6012 15.9727 44.9538 15.873 45.1685 15.689C45.3985 15.4897 45.5442 15.206 45.6055 14.838C45.6668 14.4547 45.6975 13.987 45.6975 13.435V1.981L43.7655 2.004C42.8302 2.004 42.1478 2.31833 41.7185 2.947C41.2892 3.57567 41.0745 4.54933 41.0745 5.868H39.9935L40.1315 0.899999H53.7015L53.8395 5.868H52.7585ZM64.9186 1.912C64.4279 1.92733 64.0676 2.03467 63.8376 2.234C63.6076 2.418 63.4619 2.694 63.4006 3.062C63.3392 3.43 63.3086 3.89767 63.3086 4.465V13.918C63.3086 14.746 63.2856 15.3823 63.2396 15.827C63.5002 15.8117 63.7839 15.7963 64.0906 15.781C64.3972 15.7503 64.6732 15.735 64.9186 15.735V17H59.2606V15.988C59.7666 15.9727 60.1269 15.873 60.3416 15.689C60.5716 15.4897 60.7172 15.206 60.7786 14.838C60.8399 14.47 60.8706 14.0023 60.8706 13.435V3.867C60.8706 3.16167 60.8936 2.56367 60.9396 2.073C60.6789 2.08833 60.3952 2.10367 60.0886 2.119C59.7819 2.13433 59.5059 2.14967 59.2606 2.165V0.899999H64.9186V1.912ZM78.4407 17.368C76.8614 17.368 75.4814 17.0307 74.3007 16.356C73.1354 15.6813 72.2307 14.7383 71.5867 13.527C70.9427 12.3003 70.6207 10.8743 70.6207 9.249C70.6207 8.191 70.7817 7.14833 71.1037 6.121C71.441 5.07833 71.9394 4.13533 72.5987 3.292C73.2734 2.44867 74.109 1.78167 75.1057 1.291C76.1177 0.784999 77.2907 0.532 78.6247 0.532C79.376 0.532 80.1734 0.639333 81.0167 0.853999C81.8754 1.06867 82.6267 1.36767 83.2707 1.751L83.1787 0.692999H84.6047V5.983H83.5467C83.4087 4.603 82.9027 3.545 82.0287 2.809C81.1547 2.073 80.089 1.705 78.8317 1.705C77.7584 1.705 76.8077 2.01933 75.9797 2.648C75.1517 3.26133 74.5 4.10467 74.0247 5.178C73.5647 6.236 73.3347 7.42433 73.3347 8.743C73.3347 10.1537 73.5647 11.411 74.0247 12.515C74.5 13.6037 75.167 14.4623 76.0257 15.091C76.8844 15.7197 77.8887 16.034 79.0387 16.034C79.5907 16.034 80.2117 15.9573 80.9017 15.804C81.5917 15.6353 82.205 15.3823 82.7417 15.045V12.469C82.7417 12.0857 82.7417 11.71 82.7417 11.342C82.757 10.9587 82.7647 10.606 82.7647 10.284C82.5194 10.2993 82.2434 10.3147 81.9367 10.33C81.63 10.3453 81.3617 10.3607 81.1317 10.376V9.111H86.6287V10.123C86.138 10.123 85.7777 10.261 85.5477 10.537C85.3177 10.813 85.172 11.1503 85.1107 11.549C85.0494 11.9323 85.0187 12.285 85.0187 12.607V16.195H84.4207C83.792 16.195 82.9334 16.3943 81.8447 16.793C81.3694 16.9617 80.825 17.0997 80.2117 17.207C79.5984 17.3143 79.008 17.368 78.4407 17.368ZM90.6762 17V15.965C91.1362 15.965 91.4889 15.8423 91.7342 15.597C91.9796 15.3517 92.1866 15.022 92.3552 14.608C92.5239 14.1787 92.7079 13.7033 92.9072 13.182L97.5532 0.462999H98.4732L103.51 13.366C103.633 13.6573 103.763 14.056 103.901 14.562C104.055 15.0527 104.131 15.4743 104.131 15.827C104.392 15.8117 104.645 15.7963 104.89 15.781C105.151 15.7503 105.396 15.735 105.626 15.735V17H100.037V15.988C100.574 15.9727 100.927 15.8577 101.095 15.643C101.279 15.413 101.348 15.137 101.302 14.815C101.272 14.493 101.195 14.171 101.072 13.849L100.382 11.986L94.7472 12.124L94.0802 14.125C93.8656 14.7537 93.6586 15.3133 93.4592 15.804C93.7352 15.7887 94.0266 15.7733 94.3332 15.758C94.6552 15.7273 94.9389 15.712 95.1842 15.712V17H90.6762ZM95.1612 10.882H99.9912L98.5422 6.995C98.3582 6.50433 98.1819 6.006 98.0132 5.5C97.8446 4.994 97.6912 4.511 97.5532 4.051H97.5302C97.3922 4.43433 97.2466 4.856 97.0932 5.316C96.9552 5.776 96.7866 6.27433 96.5872 6.811L95.1612 10.882ZM120.176 15.988C120.682 15.9727 121.042 15.873 121.257 15.689C121.487 15.4897 121.632 15.206 121.694 14.838C121.755 14.47 121.786 14.0023 121.786 13.435V3.867C121.786 3.16167 121.809 2.56367 121.855 2.073C121.594 2.08833 121.31 2.10367 121.004 2.119C120.697 2.13433 120.421 2.14967 120.176 2.165V0.899999C121.985 0.884666 123.856 0.869333 125.788 0.853999C127.934 0.853999 129.598 1.245 130.779 2.027C131.975 2.79367 132.588 3.97433 132.619 5.569C132.634 6.167 132.527 6.788 132.297 7.432C132.067 8.06067 131.676 8.651 131.124 9.203C130.572 9.73967 129.82 10.1767 128.87 10.514C127.919 10.8513 126.738 11.02 125.328 11.02C125.174 11.0353 124.998 11.043 124.799 11.043C124.615 11.0277 124.423 11.02 124.224 11.02V13.918C124.224 14.746 124.201 15.3823 124.155 15.827C124.477 15.7963 124.829 15.7733 125.213 15.758C125.596 15.7427 125.933 15.7273 126.225 15.712V17H120.176V15.988ZM124.224 9.801C124.469 9.83167 124.691 9.85467 124.891 9.87C125.09 9.87 125.32 9.87 125.581 9.87C126.869 9.87 127.919 9.51733 128.732 8.812C129.544 8.09133 129.951 7.087 129.951 5.799C129.951 4.80233 129.751 4.028 129.353 3.476C128.969 2.924 128.456 2.54067 127.812 2.326C127.183 2.096 126.493 1.981 125.742 1.981C125.036 1.981 124.607 2.188 124.454 2.602C124.3 3.00067 124.224 3.60633 124.224 4.419V9.801ZM137.988 17V15.988C138.494 15.9727 138.854 15.873 139.069 15.689C139.299 15.4897 139.444 15.206 139.506 14.838C139.567 14.47 139.598 14.0023 139.598 13.435V3.867C139.598 3.16167 139.621 2.56367 139.667 2.073C139.406 2.08833 139.122 2.10367 138.816 2.119C138.509 2.13433 138.233 2.14967 137.988 2.165V0.899999C138.938 0.884666 139.881 0.876999 140.817 0.876999C141.767 0.861666 142.726 0.861666 143.692 0.876999C147.954 0.907665 150.07 2.372 150.04 5.27C150.04 5.88333 149.909 6.49667 149.649 7.11C149.403 7.708 148.974 8.24467 148.361 8.72C147.747 9.19533 146.904 9.55567 145.831 9.801C146.122 10.0003 146.39 10.2533 146.636 10.56C146.896 10.8667 147.157 11.227 147.418 11.641L148.821 13.803C149.25 14.4777 149.649 15.0143 150.017 15.413C150.385 15.7963 150.898 15.988 151.558 15.988V17H148.361C147.962 16.678 147.617 16.3177 147.326 15.919C147.034 15.5203 146.735 15.0757 146.429 14.585L144.842 12.009C144.627 11.7023 144.412 11.3727 144.198 11.02C143.983 10.6673 143.745 10.3683 143.485 10.123C143.239 10.1383 143.002 10.146 142.772 10.146C142.542 10.1307 142.296 10.123 142.036 10.123V13.918C142.036 14.746 142.013 15.3823 141.967 15.827C142.227 15.8117 142.526 15.7963 142.864 15.781C143.201 15.7503 143.485 15.735 143.715 15.735V17H137.988ZM143.37 8.996C144.627 8.96533 145.608 8.674 146.314 8.122C147.034 7.55467 147.395 6.63467 147.395 5.362C147.395 4.51867 147.234 3.85167 146.912 3.361C146.59 2.87033 146.145 2.51767 145.578 2.303C145.01 2.08833 144.359 1.981 143.623 1.981C143.132 1.981 142.772 2.073 142.542 2.257C142.327 2.441 142.189 2.717 142.128 3.085C142.066 3.43767 142.036 3.88233 142.036 4.419V8.927C142.266 8.95767 142.48 8.98067 142.68 8.996C142.894 9.01133 143.124 9.01133 143.37 8.996ZM164.452 17.368C162.995 17.368 161.746 17.1227 160.703 16.632C159.676 16.1413 158.84 15.4897 158.196 14.677C157.552 13.849 157.077 12.9367 156.77 11.94C156.463 10.9433 156.31 9.94667 156.31 8.95C156.31 7.984 156.471 7.01033 156.793 6.029C157.13 5.03233 157.629 4.12 158.288 3.292C158.947 2.464 159.783 1.797 160.795 1.291C161.807 0.784999 162.988 0.532 164.337 0.532C165.748 0.532 166.959 0.784999 167.971 1.291C168.998 1.797 169.842 2.47167 170.501 3.315C171.176 4.143 171.674 5.04767 171.996 6.029C172.318 7.01033 172.479 7.984 172.479 8.95C172.479 9.90067 172.31 10.8743 171.973 11.871C171.651 12.8523 171.16 13.757 170.501 14.585C169.842 15.413 169.006 16.0877 167.994 16.609C166.982 17.115 165.801 17.368 164.452 17.368ZM164.567 16.172C165.456 16.172 166.223 15.9727 166.867 15.574C167.526 15.1753 168.063 14.6463 168.477 13.987C168.906 13.3123 169.221 12.5763 169.42 11.779C169.619 10.9663 169.719 10.1613 169.719 9.364C169.719 8.38267 169.596 7.43967 169.351 6.535C169.121 5.615 168.776 4.79467 168.316 4.074C167.856 3.338 167.281 2.763 166.591 2.349C165.901 1.91967 165.104 1.705 164.199 1.705C163.31 1.705 162.535 1.912 161.876 2.326C161.232 2.74 160.695 3.28433 160.266 3.959C159.852 4.61833 159.538 5.35433 159.323 6.167C159.124 6.97967 159.024 7.78467 159.024 8.582C159.024 9.39467 159.131 10.2457 159.346 11.135C159.561 12.009 159.89 12.8293 160.335 13.596C160.78 14.3627 161.347 14.9837 162.037 15.459C162.742 15.9343 163.586 16.172 164.567 16.172Z" fill="#212806"/>
</svg>